ffmpeg started on 2016-11-26 at 20:05:27
Report written to "Output/NVENCh264/results/ffmpeg/sintelll11000k.log"
Command line:
Tools/ffmpeg/ffmpeg -benchmark -y -i Input/y4m/sintel.y4m -c:v h264_nvenc -preset ll -b:v 11000k -an Output/NVENCh264/encoded/sintelll11000k.mkv
ffmpeg version N-82227-gdb23fde Copyright (c) 2000-2016 the FFmpeg developers
  built with gcc 5.4.0 (Ubuntu 5.4.0-6ubuntu1~16.04.2) 20160609
  configuration: --prefix=/home/jaroslav/ffmpeg_build --pkg-config-flags=--static --extra-cflags=-I/home/jaroslav/ffmpeg_build/include --extra-ldflags=-L/home/jaroslav/ffmpeg_build/lib --bindir=/home/jaroslav/bin --enable-gpl --enable-libass --enable-libfdk-aac --enable-libfreetype --enable-libmp3lame --enable-libopus --enable-libtheora --enable-libvorbis --enable-libvpx --enable-libx264 --enable-libx265 --enable-nvenc --enable-libmfx --enable-libxvid --enable-libgsm --enable-libopencore-amrnb --enable-version3 --enable-nonfree
  libavutil      55. 35.100 / 55. 35.100
  libavcodec     57. 66.101 / 57. 66.101
  libavformat    57. 57.100 / 57. 57.100
  libavdevice    57.  2.100 / 57.  2.100
  libavfilter     6. 66.100 /  6. 66.100
  libswscale      4.  3.100 /  4.  3.100
  libswresample   2.  4.100 /  2.  4.100
  libpostproc    54.  2.100 / 54.  2.100
Input #0, yuv4mpegpipe, from 'Input/y4m/sintel.y4m':
  Duration: 00:00:20.83, start: 0.000000, bitrate: 2057307 kb/s
    Stream #0:0: Video: rawvideo (I420 / 0x30323449), yuv420p(progressive), 4096x1744, SAR 1:1 DAR 256:109, 24 fps, 24 tbr, 24 tbn, 24 tbc
[h264_nvenc @ 0x372e1c0] The variable bitrate rate-control requires the 'qmin' and/or 'qmax' option set.
Output #0, matroska, to 'Output/NVENCh264/encoded/sintelll11000k.mkv':
  Metadata:
    encoder         : Lavf57.57.100
    Stream #0:0: Video: h264 (h264_nvenc) (Main) (H264 / 0x34363248), yuv420p, 4096x1744 [SAR 1:1 DAR 256:109], q=-1--1, 11000 kb/s, 24 fps, 1k tbn, 24 tbc
    Metadata:
      encoder         : Lavc57.66.101 h264_nvenc
    Side data:
      cpb: bitrate max/min/avg: 0/0/11000000 buffer size: 22000000 vbv_delay: -1
Stream mapping:
  Stream #0:0 -> #0:0 (rawvideo (native) -> h264 (h264_nvenc))
Press [q] to stop, [?] for help
frame=    3 fps=1.3 q=0.0 size=       0kB time=00:00:00.00 bitrate=N/A speed=   0x    frame=   11 fps=4.0 q=0.0 size=       0kB time=00:00:00.00 bitrate=N/A speed=   0x    frame=   19 fps=5.8 q=0.0 size=       0kB time=00:00:00.00 bitrate=N/A speed=   0x    frame=   40 fps= 11 q=34.0 size=       1kB time=00:00:00.37 bitrate=  15.9kbits/s speed=0.0997x    frame=   61 fps= 14 q=33.0 size=       1kB time=00:00:01.25 bitrate=   4.8kbits/s speed=0.292x    frame=   82 fps= 17 q=31.0 size=       1kB time=00:00:02.12 bitrate=   2.8kbits/s speed=0.444x    frame=  103 fps= 19 q=30.0 size=       1kB time=00:00:03.00 bitrate=   2.0kbits/s speed=0.566x    frame=  123 fps= 21 q=28.0 size=    5146kB time=00:00:03.83 bitrate=10995.7kbits/s speed=0.661x    frame=  144 fps= 23 q=27.0 size=    5146kB time=00:00:04.70 bitrate=8952.6kbits/s speed=0.746x    frame=  165 fps= 24 q=31.0 size=    6418kB time=00:00:05.58 bitrate=9415.2kbits/s speed=0.817x    frame=  169 fps= 16 q=30.0 size=    6418kB time=00:00:05.75 bitrate=9141.8kbits/s speed=0.538x    frame=  170 fps= 15 q=31.0 size=    6418kB time=00:00:05.79 bitrate=9075.5kbits/s speed=0.503x    frame=  191 fps= 16 q=29.0 size=    6418kB time=00:00:06.66 bitrate=7884.6kbits/s speed=0.554x    frame=  212 fps= 17 q=28.0 size=    6418kB time=00:00:07.54 bitrate=6970.0kbits/s speed=0.602x    frame=  233 fps= 18 q=29.0 size=    6418kB time=00:00:08.41 bitrate=6245.5kbits/s speed=0.645x    frame=  253 fps= 19 q=31.0 size=   11549kB time=00:00:09.25 bitrate=10227.3kbits/s speed=0.683x    frame=  274 fps= 19 q=27.0 size=   11549kB time=00:00:10.12 bitrate=9343.5kbits/s speed=0.72x    frame=  295 fps= 20 q=25.0 size=   11549kB time=00:00:11.00 bitrate=8600.4kbits/s speed=0.755x    frame=  315 fps= 21 q=28.0 size=   14768kB time=00:00:11.83 bitrate=10223.1kbits/s speed=0.785x    frame=  336 fps= 22 q=24.0 size=   14768kB time=00:00:12.70 bitrate=9519.3kbits/s speed=0.816x    frame=  357 fps= 22 q=25.0 size=   14768kB time=00:00:13.58 bitrate=8906.1kbits/s speed=0.844x    frame=  378 fps= 23 q=24.0 size=   14768kB time=00:00:14.45 bitrate=8367.1kbits/s speed=0.871x    frame=  398 fps= 23 q=23.0 size=   19908kB time=00:00:15.29 bitrate=10663.9kbits/s speed=0.894x    frame=  419 fps= 24 q=22.0 size=   19908kB time=00:00:16.16 bitrate=10086.8kbits/s speed=0.918x    frame=  440 fps= 24 q=29.0 size=   19908kB time=00:00:17.04 bitrate=9568.9kbits/s speed=0.94x    frame=  461 fps= 25 q=29.0 size=   23471kB time=00:00:17.91 bitrate=10730.8kbits/s speed=0.961x    frame=  482 fps= 25 q=28.0 size=   23471kB time=00:00:18.79 bitrate=10231.2kbits/s speed=0.981x    frame=  500 fps= 25 q=28.0 Lsize=   28124kB time=00:00:20.79 bitrate=11080.2kbits/s speed=1.06x    
video:28119kB audio:0kB subtitle:0kB other streams:0kB global headers:0kB muxing overhead: 0.017302%
bench: utime=0.796s
bench: maxrss=1199368kB
